# xmcd
#
# Track frame offsets:
#	150
#	20999
#	41034
#	52019
#	89581
#	118398
#	142987
#	163860
#	181320
#
# Disc length: 2809 seconds
#
# Revision: 1
# Processed by: cddbd v1.5.2PL0 Copyright (c) Steve Scherf et al.
# Submitted via: audiograbber 1.83.01
#
DISCID=870af709
DTITLE=Tantrum - Steppin' Out
DYEAR=2006
DGENRE=Blues
TTITLE0=Trouble Arisin'
TTITLE1=Woman Like You
TTITLE2=Hazard To My Health
TTITLE3=Long Time Coming
TTITLE4=Goin' Down Slow
TTITLE5=Fly On
TTITLE6=Insane Child
TTITLE7=Got Your Number
TTITLE8=No Chance
EXTD=
EXTT0=
EXTT1=
EXTT2=
EXTT3=
EXTT4=
EXTT5=
EXTT6=
EXTT7=
EXTT8=
PLAYORDER=
